<svg width="109" height="30" viewBox="0 0 109 30" fill="none" xmlns="http://www.w3.org/2000/svg">
<path fill-rule="evenodd" clip-rule="evenodd" d="M16.5039 0.258301C16.5039 0.258301 14.1531 0.269267 12.4622 2.51875C10.9585 4.51907 11.3413 6.22996 11.3413 6.22996C11.3413 6.22996 13.3801 6.58592 15.1737 4.41052C16.8535 2.3732 16.5039 0.258301 16.5039 0.258301ZM12.9064 7.3027C12.353 7.52783 11.8984 7.71282 11.5578 7.71282C11.1333 7.71282 10.6211 7.51369 10.0259 7.28227C9.20042 6.96131 8.21525 6.57827 7.08268 6.57827C4.08435 6.57827 0.887695 9.28801 0.887695 14.4535C0.887695 19.7038 4.66431 26.2353 7.65367 26.2352C8.11871 26.2352 8.6947 26.0245 9.3333 25.7909C10.1276 25.5003 11.0188 25.1743 11.9138 25.1743C12.7162 25.1743 13.4122 25.4367 14.099 25.6957C14.7681 25.948 15.4286 26.197 16.1706 26.197C19.4442 26.197 21.8679 19.3116 21.8679 19.3116C21.8679 19.3116 18.4008 17.9567 18.4008 14.0253C18.4008 10.5402 21.184 9.10388 21.184 9.10388C21.184 9.10388 19.7609 6.5059 16.1436 6.5059C14.8649 6.5059 13.7665 6.95279 12.9064 7.3027Z" fill="white"/>
<path d="M32.4772 8.2583H30.3369V1.32269H32.572C33.2448 1.32269 33.8205 1.46154 34.2992 1.73924C34.7778 2.01467 35.1447 2.4109 35.3998 2.92791C35.6549 3.44266 35.7825 4.05901 35.7825 4.77695C35.7825 5.49941 35.6538 6.1214 35.3964 6.64293C35.139 7.1622 34.7642 7.56181 34.2721 7.84176C33.7799 8.11945 33.1816 8.2583 32.4772 8.2583ZM31.1768 7.51326H32.423C32.9965 7.51326 33.4717 7.40264 33.8488 7.18139C34.2258 6.96013 34.5069 6.64519 34.692 6.23654C34.8771 5.8279 34.9697 5.34137 34.9697 4.77695C34.9697 4.21705 34.8783 3.73503 34.6954 3.3309C34.5125 2.92452 34.2393 2.61296 33.8758 2.39622C33.5124 2.17723 33.0597 2.06773 32.5179 2.06773H31.1768V7.51326ZM39.2914 8.36667C38.8218 8.36667 38.4098 8.25491 38.0554 8.0314C37.7032 7.80789 37.4277 7.4952 37.2291 7.09334C37.0326 6.69147 36.9344 6.22187 36.9344 5.68454C36.9344 5.1427 37.0326 4.66971 37.2291 4.26559C37.4277 3.86146 37.7032 3.54764 38.0554 3.32413C38.4098 3.10062 38.8218 2.98887 39.2914 2.98887C39.761 2.98887 40.1719 3.10062 40.5241 3.32413C40.8786 3.54764 41.154 3.86146 41.3505 4.26559C41.5491 4.66971 41.6485 5.1427 41.6485 5.68454C41.6485 6.22187 41.5491 6.69147 41.3505 7.09334C41.154 7.4952 40.8786 7.80789 40.5241 8.0314C40.1719 8.25491 39.761 8.36667 39.2914 8.36667ZM39.2914 7.64873C39.6482 7.64873 39.9417 7.55729 40.1719 7.37442C40.4022 7.19154 40.5727 6.9511 40.6833 6.65309C40.7939 6.35507 40.8492 6.03222 40.8492 5.68454C40.8492 5.33686 40.7939 5.01288 40.6833 4.71261C40.5727 4.41234 40.4022 4.16963 40.1719 3.9845C39.9417 3.79937 39.6482 3.70681 39.2914 3.70681C38.9347 3.70681 38.6412 3.79937 38.4109 3.9845C38.1807 4.16963 38.0102 4.41234 37.8996 4.71261C37.789 5.01288 37.7336 5.33686 37.7336 5.68454C37.7336 6.03222 37.789 6.35507 37.8996 6.65309C38.0102 6.9511 38.1807 7.19154 38.4109 7.37442C38.6412 7.55729 38.9347 7.64873 39.2914 7.64873ZM43.9654 8.2583L42.3805 3.0566H43.2204L44.3447 7.03915H44.3989L45.5097 3.0566H46.3631L47.4603 7.02561H47.5145L48.6388 3.0566H49.4787L47.8938 8.2583H47.1081L45.9702 4.2622H45.8889L44.7511 8.2583H43.9654ZM51.4298 5.12915V8.2583H50.6306V3.0566H51.4027V3.86936H51.4705C51.5924 3.60521 51.7775 3.39299 52.0259 3.2327C52.2742 3.07014 52.5948 2.98887 52.9876 2.98887C53.3398 2.98887 53.648 3.06111 53.9122 3.2056C54.1763 3.34784 54.3818 3.56458 54.5285 3.85582C54.6753 4.1448 54.7486 4.51055 54.7486 4.95305V8.2583H53.9494V5.00724C53.9494 4.59859 53.8433 4.28026 53.6311 4.05223C53.4189 3.82195 53.1276 3.70681 52.7574 3.70681C52.5022 3.70681 52.2742 3.76212 52.0733 3.87275C51.8746 3.98338 51.7177 4.1448 51.6026 4.35702C51.4874 4.56924 51.4298 4.82662 51.4298 5.12915ZM57.1037 1.32269V8.2583H56.3044V1.32269H57.1037ZM60.776 8.36667C60.3064 8.36667 59.8944 8.25491 59.54 8.0314C59.1878 7.80789 58.9123 7.4952 58.7136 7.09334C58.5172 6.69147 58.419 6.22187 58.419 5.68454C58.419 5.1427 58.5172 4.66971 58.7136 4.26559C58.9123 3.86146 59.1878 3.54764 59.54 3.32413C59.8944 3.10062 60.3064 2.98887 60.776 2.98887C61.2456 2.98887 61.6565 3.10062 62.0087 3.32413C62.3632 3.54764 62.6386 3.86146 62.8351 4.26559C63.0337 4.66971 63.1331 5.1427 63.1331 5.68454C63.1331 6.22187 63.0337 6.69147 62.8351 7.09334C62.6386 7.4952 62.3632 7.80789 62.0087 8.0314C61.6565 8.25491 61.2456 8.36667 60.776 8.36667ZM60.776 7.64873C61.1328 7.64873 61.4263 7.55729 61.6565 7.37442C61.8868 7.19154 62.0573 6.9511 62.1679 6.65309C62.2785 6.35507 62.3338 6.03222 62.3338 5.68454C62.3338 5.33686 62.2785 5.01288 62.1679 4.71261C62.0573 4.41234 61.8868 4.16963 61.6565 3.9845C61.4263 3.79937 61.1328 3.70681 60.776 3.70681C60.4193 3.70681 60.1258 3.79937 59.8955 3.9845C59.6653 4.16963 59.4948 4.41234 59.3842 4.71261C59.2736 5.01288 59.2182 5.33686 59.2182 5.68454C59.2182 6.03222 59.2736 6.35507 59.3842 6.65309C59.4948 6.9511 59.6653 7.19154 59.8955 7.37442C60.1258 7.55729 60.4193 7.64873 60.776 7.64873ZM65.9791 8.38022C65.6495 8.38022 65.3504 8.31813 65.0817 8.19396C64.813 8.06753 64.5997 7.88578 64.4417 7.64873C64.2836 7.40941 64.2046 7.12043 64.2046 6.78178C64.2046 6.48376 64.2633 6.24219 64.3807 6.05706C64.4981 5.86967 64.655 5.72292 64.8514 5.61681C65.0478 5.5107 65.2646 5.43168 65.5016 5.37975C65.741 5.32557 65.9814 5.28267 66.223 5.25107C66.539 5.21043 66.7953 5.17995 66.9917 5.15963C67.1904 5.13705 67.3349 5.0998 67.4252 5.04787C67.5177 4.99595 67.564 4.90564 67.564 4.77695V4.74986C67.564 4.41572 67.4726 4.15609 67.2897 3.97096C67.1091 3.78583 66.8348 3.69326 66.4668 3.69326C66.0852 3.69326 65.7861 3.7768 65.5694 3.94387C65.3526 4.11093 65.2002 4.28929 65.1122 4.47894L64.3536 4.20802C64.4891 3.89194 64.6697 3.64585 64.8954 3.46975C65.1235 3.2914 65.3718 3.16722 65.6405 3.09723C65.9114 3.02499 66.1778 2.98887 66.4397 2.98887C66.6068 2.98887 66.7987 3.00918 67.0154 3.04982C67.2344 3.0882 67.4455 3.16835 67.6487 3.29027C67.8541 3.41218 68.0246 3.59618 68.1601 3.84227C68.2955 4.08836 68.3633 4.41798 68.3633 4.83114V8.2583H67.564V7.5539H67.5234C67.4692 7.66679 67.3789 7.78757 67.2525 7.91626C67.126 8.04495 66.9578 8.15445 66.7479 8.24475C66.5379 8.33506 66.2817 8.38022 65.9791 8.38022ZM66.1011 7.66227C66.4171 7.66227 66.6835 7.60019 66.9003 7.47601C67.1193 7.35184 67.2841 7.19154 67.3947 6.99513C67.5076 6.79871 67.564 6.59213 67.564 6.37539V5.6439C67.5302 5.68454 67.4557 5.72179 67.3405 5.75566C67.2276 5.78727 67.0967 5.81549 66.9477 5.84032C66.8009 5.8629 66.6576 5.88322 66.5176 5.90128C66.3799 5.91708 66.2681 5.93063 66.1823 5.94192C65.9746 5.96901 65.7805 6.01303 65.5998 6.07399C65.4215 6.13269 65.277 6.22187 65.1664 6.34153C65.058 6.45893 65.0038 6.61922 65.0038 6.82241C65.0038 7.10011 65.1065 7.31007 65.312 7.45231C65.5197 7.59228 65.7827 7.66227 66.1011 7.66227ZM71.8815 8.36667C71.4481 8.36667 71.0654 8.25717 70.7335 8.03818C70.4016 7.81692 70.142 7.50536 69.9546 7.1035C69.7672 6.69937 69.6735 6.22187 69.6735 5.67099C69.6735 5.12463 69.7672 4.65052 69.9546 4.24865C70.142 3.84679 70.4028 3.53635 70.7369 3.31736C71.071 3.09836 71.4571 2.98887 71.8951 2.98887C72.2337 2.98887 72.5013 3.04531 72.6977 3.15819C72.8964 3.26882 73.0476 3.39525 73.1515 3.53748C73.2576 3.67746 73.34 3.7926 73.3987 3.88291H73.4664V1.32269H74.2657V8.2583H73.4935V7.45908H73.3987C73.34 7.5539 73.2565 7.67356 73.1481 7.81805C73.0397 7.96029 72.8851 8.08785 72.6842 8.20073C72.4832 8.31136 72.2157 8.36667 71.8815 8.36667ZM71.9899 7.64873C72.3105 7.64873 72.5814 7.56519 72.8027 7.39812C73.0239 7.2288 73.1921 6.99513 73.3073 6.69711C73.4224 6.39684 73.48 6.05029 73.48 5.65745C73.48 5.26913 73.4235 4.92935 73.3107 4.6381C73.1978 4.34461 73.0307 4.11658 72.8095 3.95403C72.5882 3.78921 72.315 3.70681 71.9899 3.70681C71.6513 3.70681 71.3691 3.79373 71.1433 3.96757C70.9198 4.13916 70.7516 4.37283 70.6387 4.66858C70.5281 4.96208 70.4728 5.2917 70.4728 5.65745C70.4728 6.02771 70.5292 6.3641 70.6421 6.66663C70.7572 6.96691 70.9265 7.20622 71.1501 7.38458C71.3758 7.56068 71.6558 7.64873 71.9899 7.64873ZM80.8264 8.36667C80.3568 8.36667 79.9448 8.25491 79.5904 8.0314C79.2382 7.80789 78.9627 7.4952 78.7641 7.09334C78.5676 6.69147 78.4694 6.22187 78.4694 5.68454C78.4694 5.1427 78.5676 4.66971 78.7641 4.26559C78.9627 3.86146 79.2382 3.54764 79.5904 3.32413C79.9448 3.10062 80.3568 2.98887 80.8264 2.98887C81.296 2.98887 81.7069 3.10062 82.0591 3.32413C82.4136 3.54764 82.689 3.86146 82.8855 4.26559C83.0841 4.66971 83.1835 5.1427 83.1835 5.68454C83.1835 6.22187 83.0841 6.69147 82.8855 7.09334C82.689 7.4952 82.4136 7.80789 82.0591 8.0314C81.7069 8.25491 81.296 8.36667 80.8264 8.36667ZM80.8264 7.64873C81.1832 7.64873 81.4767 7.55729 81.7069 7.37442C81.9372 7.19154 82.1077 6.9511 82.2183 6.65309C82.3289 6.35507 82.3843 6.03222 82.3843 5.68454C82.3843 5.33686 82.3289 5.01288 82.2183 4.71261C82.1077 4.41234 81.9372 4.16963 81.7069 3.9845C81.4767 3.79937 81.1832 3.70681 80.8264 3.70681C80.4697 3.70681 80.1762 3.79937 79.946 3.9845C79.7157 4.16963 79.5452 4.41234 79.4346 4.71261C79.324 5.01288 79.2686 5.33686 79.2686 5.68454C79.2686 6.03222 79.324 6.35507 79.4346 6.65309C79.5452 6.9511 79.7157 7.19154 79.946 7.37442C80.1762 7.55729 80.4697 7.64873 80.8264 7.64873ZM85.298 5.12915V8.2583H84.4988V3.0566H85.271V3.86936H85.3387C85.4606 3.60521 85.6457 3.39299 85.8941 3.2327C86.1424 3.07014 86.463 2.98887 86.8558 2.98887C87.208 2.98887 87.5162 3.06111 87.7804 3.2056C88.0445 3.34784 88.25 3.56458 88.3967 3.85582C88.5435 4.1448 88.6168 4.51055 88.6168 4.95305V8.2583H87.8176V5.00724C87.8176 4.59859 87.7115 4.28026 87.4993 4.05223C87.2871 3.82195 86.9958 3.70681 86.6256 3.70681C86.3704 3.70681 86.1424 3.76212 85.9415 3.87275C85.7428 3.98338 85.5859 4.1448 85.4708 4.35702C85.3556 4.56924 85.298 4.82662 85.298 5.12915ZM95.2123 3.0566V3.7339H92.5167V3.0566H95.2123ZM93.3023 1.81035H94.1016V6.76823C94.1016 6.994 94.1343 7.16332 94.1998 7.27621C94.2675 7.38683 94.3533 7.46134 94.4571 7.49972C94.5633 7.53584 94.675 7.5539 94.7924 7.5539C94.8805 7.5539 94.9527 7.54939 95.0092 7.54036C95.0656 7.52907 95.1107 7.52004 95.1446 7.51326L95.3072 8.23121C95.253 8.25153 95.1773 8.27185 95.0803 8.29217C94.9832 8.31474 94.8601 8.32603 94.7111 8.32603C94.4854 8.32603 94.2641 8.27749 94.0474 8.18041C93.8329 8.08333 93.6545 7.93545 93.5123 7.73678C93.3723 7.5381 93.3023 7.2875 93.3023 6.98497V1.81035ZM97.4209 5.12915V8.2583H96.6217V1.32269H97.4209V3.86936H97.4886C97.6105 3.6007 97.7934 3.38735 98.0372 3.22931C98.2833 3.06901 98.6107 2.98887 99.0193 2.98887C99.3738 2.98887 99.6842 3.05998 99.9506 3.20222C100.217 3.34219 100.424 3.5578 100.57 3.84904C100.719 4.13803 100.794 4.50603 100.794 4.95305V8.2583H99.9947V5.00724C99.9947 4.59408 99.8874 4.27462 99.6729 4.04885C99.4607 3.82082 99.1661 3.70681 98.7891 3.70681C98.5272 3.70681 98.2924 3.76212 98.0847 3.87275C97.8792 3.98338 97.7167 4.1448 97.597 4.35702C97.4796 4.56924 97.4209 4.82662 97.4209 5.12915ZM104.532 8.36667C104.031 8.36667 103.599 8.25604 103.235 8.03479C102.874 7.81128 102.595 7.49972 102.399 7.10011C102.205 6.69824 102.108 6.2309 102.108 5.69809C102.108 5.16527 102.205 4.69567 102.399 4.28929C102.595 3.88065 102.868 3.56232 103.218 3.33429C103.571 3.10401 103.981 2.98887 104.451 2.98887C104.722 2.98887 104.989 3.03402 105.254 3.12433C105.518 3.21463 105.758 3.36138 105.975 3.56458C106.192 3.76551 106.364 4.03192 106.493 4.3638C106.622 4.69567 106.686 5.10432 106.686 5.58972V5.92837H102.676V5.23752H105.873C105.873 4.94402 105.815 4.68213 105.697 4.45185C105.582 4.22156 105.417 4.03982 105.203 3.90661C104.991 3.77341 104.74 3.70681 104.451 3.70681C104.133 3.70681 103.857 3.78583 103.625 3.94387C103.394 4.09965 103.217 4.30284 103.093 4.55344C102.969 4.80404 102.907 5.07271 102.907 5.35943V5.82C102.907 6.21284 102.974 6.54585 103.11 6.81903C103.248 7.08995 103.438 7.29653 103.682 7.43876C103.926 7.57874 104.209 7.64873 104.532 7.64873C104.742 7.64873 104.932 7.61938 105.101 7.56068C105.273 7.49972 105.421 7.40941 105.545 7.28975C105.669 7.16784 105.765 7.01657 105.833 6.83596L106.605 7.0527C106.524 7.31459 106.387 7.54487 106.195 7.74355C106.003 7.93997 105.766 8.09349 105.484 8.20412C105.202 8.31249 104.884 8.36667 104.532 8.36667Z" fill="white"/>
<path d="M32.1741 26.1656H29.8943L34.0452 14.3751H36.6819L40.8385 26.1656H38.5587L35.4096 16.793H35.3175L32.1741 26.1656ZM32.249 21.5426H38.4666V23.2583H32.249V21.5426ZM42.2994 29.4817V17.3227H44.3489V18.785H44.4698C44.5773 18.5701 44.7289 18.3417 44.9246 18.0999C45.1204 17.8543 45.3852 17.6451 45.7191 17.4724C46.053 17.2958 46.4791 17.2076 46.9972 17.2076C47.6804 17.2076 48.2964 17.3822 48.8452 17.7314C49.3979 18.0769 49.8354 18.5893 50.1578 19.2686C50.4841 19.9441 50.6472 20.7731 50.6472 21.7557C50.6472 22.7267 50.4879 23.5519 50.1694 24.2312C49.8508 24.9105 49.4171 25.4287 48.8683 25.7856C48.3194 26.1426 47.6976 26.321 47.003 26.321C46.4963 26.321 46.0761 26.2366 45.7421 26.0677C45.4082 25.8988 45.1396 25.6954 44.9362 25.4575C44.7366 25.2157 44.5811 24.9873 44.4698 24.7724H44.3835V29.4817H42.2994ZM44.3432 21.7441C44.3432 22.316 44.4238 22.8169 44.585 23.2467C44.75 23.6766 44.9861 24.0124 45.2931 24.2542C45.604 24.4922 45.9801 24.6112 46.4215 24.6112C46.8821 24.6112 47.2678 24.4884 47.5787 24.2427C47.8895 23.9932 48.1237 23.6536 48.281 23.2237C48.4422 22.79 48.5228 22.2968 48.5228 21.7441C48.5228 21.1953 48.4441 20.7079 48.2868 20.2818C48.1294 19.8558 47.8953 19.5219 47.5844 19.2801C47.2735 19.0383 46.8859 18.9174 46.4215 18.9174C45.9763 18.9174 45.5982 19.0345 45.2873 19.2686C44.9765 19.5027 44.7404 19.8309 44.5792 20.2531C44.4219 20.6752 44.3432 21.1723 44.3432 21.7441ZM52.4319 29.4817V17.3227H54.4814V18.785H54.6023C54.7098 18.5701 54.8614 18.3417 55.0571 18.0999C55.2529 17.8543 55.5177 17.6451 55.8516 17.4724C56.1855 17.2958 56.6115 17.2076 57.1297 17.2076C57.8129 17.2076 58.4289 17.3822 58.9777 17.7314C59.5304 18.0769 59.9679 18.5893 60.2903 19.2686C60.6166 19.9441 60.7797 20.7731 60.7797 21.7557C60.7797 22.7267 60.6204 23.5519 60.3018 24.2312C59.9833 24.9105 59.5496 25.4287 59.0007 25.7856C58.4519 26.1426 57.8301 26.321 57.1354 26.321C56.6288 26.321 56.2085 26.2366 55.8746 26.0677C55.5407 25.8988 55.2721 25.6954 55.0686 25.4575C54.8691 25.2157 54.7136 24.9873 54.6023 24.7724H54.516V29.4817H52.4319ZM54.4757 21.7441C54.4757 22.316 54.5563 22.8169 54.7175 23.2467C54.8825 23.6766 55.1185 24.0124 55.4256 24.2542C55.7365 24.4922 56.1126 24.6112 56.554 24.6112C57.0145 24.6112 57.4003 24.4884 57.7111 24.2427C58.022 23.9932 58.2562 23.6536 58.4135 23.2237C58.5747 22.79 58.6553 22.2968 58.6553 21.7441C58.6553 21.1953 58.5766 20.7079 58.4193 20.2818C58.2619 19.8558 58.0278 19.5219 57.7169 19.2801C57.406 19.0383 57.0184 18.9174 56.554 18.9174C56.1088 18.9174 55.7307 19.0345 55.4198 19.2686C55.1089 19.5027 54.8729 19.8309 54.7117 20.2531C54.5543 20.6752 54.4757 21.1723 54.4757 21.7441ZM73.0855 17.6163C73.0317 17.1135 72.8053 16.722 72.4061 16.4419C72.0108 16.1617 71.4965 16.0216 70.8632 16.0216C70.418 16.0216 70.0361 16.0888 69.7176 16.2231C69.399 16.3574 69.1553 16.5397 68.9864 16.77C68.8175 17.0003 68.7312 17.2632 68.7273 17.5587C68.7273 17.8044 68.783 18.0174 68.8943 18.1978C69.0094 18.3782 69.1649 18.5317 69.3606 18.6583C69.5564 18.7812 69.7732 18.8848 70.0112 18.9692C70.2491 19.0537 70.489 19.1247 70.7308 19.1822L71.8362 19.4586C72.2814 19.5622 72.7093 19.7023 73.12 19.8788C73.5345 20.0554 73.9049 20.278 74.2311 20.5467C74.5612 20.8153 74.8222 21.1396 75.0141 21.5196C75.206 21.8996 75.3019 22.3448 75.3019 22.8553C75.3019 23.5461 75.1254 24.1544 74.7723 24.6803C74.4192 25.2022 73.9087 25.611 73.2409 25.9065C72.5769 26.1982 71.7728 26.3441 70.8287 26.3441C69.9114 26.3441 69.115 26.202 68.4395 25.918C67.7678 25.634 67.242 25.2195 66.862 24.6745C66.4859 24.1295 66.2825 23.4655 66.2518 22.6825H68.3531C68.3838 23.0932 68.5105 23.4348 68.7331 23.7073C68.9557 23.9798 69.2455 24.1832 69.6024 24.3176C69.9632 24.4519 70.3662 24.5191 70.8114 24.5191C71.2758 24.5191 71.6827 24.45 72.0319 24.3118C72.385 24.1698 72.6614 23.9741 72.8609 23.7246C73.0605 23.4713 73.1622 23.1757 73.1661 22.838C73.1622 22.5309 73.072 22.2776 72.8955 22.0781C72.7189 21.8746 72.4714 21.7058 72.1528 21.5714C71.8381 21.4333 71.4696 21.3104 71.0475 21.203L69.706 20.8575C68.735 20.6081 67.9674 20.23 67.4032 19.7234C66.8429 19.2129 66.5627 18.5355 66.5627 17.6911C66.5627 16.9965 66.7507 16.3881 67.1269 15.8661C67.5068 15.3442 68.0231 14.9393 68.6755 14.6514C69.328 14.3597 70.0668 14.2139 70.892 14.2139C71.7287 14.2139 72.4618 14.3597 73.0912 14.6514C73.7245 14.9393 74.2215 15.3403 74.5823 15.8546C74.9431 16.3651 75.1292 16.9523 75.1407 17.6163H73.0855ZM81.5297 17.3227V18.9347H76.4462V17.3227H81.5297ZM77.7012 15.2041H79.7853V23.5058C79.7853 23.786 79.8275 24.0009 79.9119 24.1506C80.0002 24.2965 80.1154 24.3962 80.2574 24.45C80.3994 24.5037 80.5567 24.5306 80.7294 24.5306C80.8599 24.5306 80.9789 24.521 81.0864 24.5018C81.1977 24.4826 81.2821 24.4653 81.3397 24.45L81.6909 26.0792C81.5796 26.1176 81.4203 26.1598 81.213 26.2059C81.0096 26.2519 80.7601 26.2788 80.4646 26.2865C79.9426 26.3018 79.4725 26.2232 79.0541 26.0504C78.6358 25.8739 78.3038 25.6014 78.0582 25.2329C77.8164 24.8645 77.6974 24.4039 77.7012 23.8512V15.2041ZM87.0349 26.3383C86.1713 26.3383 85.4229 26.1483 84.7896 25.7683C84.1564 25.3884 83.6651 24.8568 83.3158 24.1736C82.9704 23.4905 82.7977 22.6921 82.7977 21.7787C82.7977 20.8652 82.9704 20.065 83.3158 19.378C83.6651 18.691 84.1564 18.1575 84.7896 17.7775C85.4229 17.3975 86.1713 17.2076 87.0349 17.2076C87.8985 17.2076 88.6469 17.3975 89.2802 17.7775C89.9134 18.1575 90.4028 18.691 90.7482 19.378C91.0975 20.065 91.2721 20.8652 91.2721 21.7787C91.2721 22.6921 91.0975 23.4905 90.7482 24.1736C90.4028 24.8568 89.9134 25.3884 89.2802 25.7683C88.6469 26.1483 87.8985 26.3383 87.0349 26.3383ZM87.0464 24.6687C87.5147 24.6687 87.9061 24.5402 88.2209 24.283C88.5356 24.022 88.7697 23.6728 88.9232 23.2352C89.0806 22.7977 89.1593 22.3103 89.1593 21.7729C89.1593 21.2318 89.0806 20.7424 88.9232 20.3049C88.7697 19.8635 88.5356 19.5123 88.2209 19.2513C87.9061 18.9903 87.5147 18.8598 87.0464 18.8598C86.5667 18.8598 86.1675 18.9903 85.8489 19.2513C85.5342 19.5123 85.2982 19.8635 85.1408 20.3049C84.9873 20.7424 84.9105 21.2318 84.9105 21.7729C84.9105 22.3103 84.9873 22.7977 85.1408 23.2352C85.2982 23.6728 85.5342 24.022 85.8489 24.283C86.1675 24.5402 86.5667 24.6687 87.0464 24.6687ZM93.041 26.1656V17.3227H95.0617V18.7965H95.1538C95.315 18.286 95.5914 17.8926 95.9829 17.6163C96.3782 17.3361 96.8292 17.196 97.3358 17.196C97.4509 17.196 97.5795 17.2018 97.7215 17.2133C97.8674 17.221 97.9883 17.2344 98.0842 17.2536V19.1707C97.9959 19.14 97.8558 19.1131 97.6639 19.0901C97.4759 19.0633 97.2936 19.0498 97.117 19.0498C96.737 19.0498 96.3955 19.1323 96.0922 19.2974C95.7929 19.4586 95.5568 19.6831 95.3841 19.971C95.2114 20.2588 95.1251 20.5908 95.1251 20.9669V26.1656H93.041ZM103.019 26.3383C102.133 26.3383 101.367 26.1541 100.722 25.7856C100.081 25.4133 99.5882 24.8875 99.2428 24.2082C98.8974 23.525 98.7247 22.7209 98.7247 21.796C98.7247 20.8863 98.8974 20.088 99.2428 19.401C99.5921 18.7102 100.08 18.1728 100.705 17.789C101.331 17.4014 102.066 17.2076 102.91 17.2076C103.455 17.2076 103.969 17.2958 104.453 17.4724C104.94 17.6451 105.37 17.9138 105.743 18.2784C106.119 18.643 106.414 19.1074 106.629 19.6716C106.844 20.2319 106.952 20.8998 106.952 21.6751V22.3141H99.7034V20.9094H104.954C104.95 20.5102 104.864 20.1552 104.695 19.8443C104.526 19.5296 104.29 19.282 103.987 19.1016C103.687 18.9212 103.338 18.8311 102.939 18.8311C102.513 18.8311 102.139 18.9347 101.816 19.1419C101.494 19.3454 101.242 19.614 101.062 19.9479C100.886 20.278 100.795 20.6407 100.791 21.036V22.2623C100.791 22.7766 100.886 23.218 101.074 23.5864C101.262 23.951 101.525 24.2312 101.862 24.4269C102.2 24.6188 102.595 24.7148 103.048 24.7148C103.351 24.7148 103.626 24.6726 103.872 24.5881C104.117 24.4999 104.33 24.3713 104.511 24.2024C104.691 24.0335 104.827 23.8244 104.919 23.5749L106.865 23.7937C106.742 24.308 106.508 24.757 106.163 25.1408C105.821 25.5208 105.384 25.8163 104.85 26.0274C104.317 26.2347 103.706 26.3383 103.019 26.3383Z" fill="white"/>
</svg>
