<svg width="32" height="32" viewBox="0 0 32 32" fill="none" xmlns="http://www.w3.org/2000/svg">
<circle cx="16" cy="16" r="16" fill="white" fill-opacity="0.05"/>
<path fill-rule="evenodd" clip-rule="evenodd" d="M16.1912 14.6632L20.5312 10.3232C20.9622 9.89225 21.6623 9.89225 22.0933 10.3232C22.5243 10.7542 22.5243 11.4542 22.0933 11.8852L17.7533 16.2252L22.0933 20.5653C22.5153 20.9862 22.5153 21.6713 22.0933 22.0933C21.6713 22.5153 20.9862 22.5153 20.5653 22.0933L16.2252 17.7533L11.8852 22.0933C11.4542 22.5243 10.7542 22.5243 10.3232 22.0933C9.89225 21.6623 9.89225 20.9622 10.3232 20.5312L14.6632 16.1912L10.3232 11.8513C9.90125 11.4303 9.90125 10.7452 10.3232 10.3232C10.7452 9.90125 11.4303 9.90125 11.8513 10.3232L16.1912 14.6632Z" fill="white" fill-opacity="0.8"/>
</svg>
