<svg width="128" height="30" viewBox="0 0 128 30" fill="none" xmlns="http://www.w3.org/2000/svg">
<g clip-path="url(#clip0_425_3161)">
<path d="M5.84563 0.597484C5.17799 0.184744 4.38229 0.147837 3.68834 0.49144L15.3236 12.4661L19.128 8.54091L5.84563 0.597484ZM2.61931 1.5997C2.47252 1.91888 2.39355 2.27391 2.39355 2.63935V24.5437C2.39355 24.9107 2.47302 25.2605 2.62133 25.5729L14.2521 13.5718L2.61931 1.5997ZM15.3252 14.6759L3.70863 26.6625C4.01689 26.8091 4.34489 26.873 4.67238 26.873C5.07681 26.873 5.48023 26.7737 5.84568 26.5481L19.1306 18.5927L15.3252 14.6759ZM24.1867 11.5663C24.1822 11.5632 24.1771 11.56 24.1725 11.5574L20.4846 9.35183L16.3963 13.5702L20.4871 17.7802C20.4871 17.7802 24.1822 15.5679 24.1867 15.5653C24.8726 15.1375 25.2821 14.39 25.2821 13.5655C25.2821 12.7411 24.8726 11.9936 24.1867 11.5663Z" fill="white"/>
</g>
<path d="M40.3998 3.49007C40.3253 3.26205 40.2271 3.05773 40.1052 2.87711C39.9856 2.69424 39.8422 2.53846 39.6751 2.40977C39.5103 2.28108 39.3229 2.18287 39.113 2.11514C38.903 2.04741 38.6727 2.01355 38.4221 2.01355C38.0112 2.01355 37.6376 2.11966 37.3012 2.33188C36.9648 2.5441 36.6972 2.85679 36.4986 3.26995C36.2999 3.6831 36.2006 4.18995 36.2006 4.7905C36.2006 5.39104 36.301 5.89789 36.502 6.31105C36.7029 6.7242 36.9749 7.03689 37.3181 7.24912C37.6613 7.46134 38.0473 7.56745 38.4763 7.56745C38.8736 7.56745 39.2236 7.48279 39.5261 7.31346C39.8309 7.14188 40.068 6.9003 40.2373 6.58874C40.4089 6.27493 40.4947 5.90579 40.4947 5.48135L40.752 5.53553H38.6659V4.7905H41.3074V5.53553C41.3074 6.10673 41.1855 6.60342 40.9417 7.02561C40.7001 7.44779 40.366 7.77516 39.9393 8.0077C39.5148 8.23798 39.0272 8.35312 38.4763 8.35312C37.8622 8.35312 37.3226 8.20863 36.8575 7.91965C36.3947 7.63066 36.0335 7.21977 35.7738 6.68695C35.5165 6.15414 35.3878 5.52199 35.3878 4.7905C35.3878 4.24188 35.4612 3.74858 35.6079 3.31059C35.7569 2.87034 35.9669 2.49556 36.2378 2.18626C36.5087 1.87696 36.8293 1.6399 37.1996 1.47509C37.5698 1.31028 37.9773 1.22787 38.4221 1.22787C38.7879 1.22787 39.1288 1.28319 39.4448 1.39381C39.7632 1.50218 40.0465 1.65683 40.2949 1.85777C40.5455 2.05644 40.7543 2.29463 40.9214 2.57232C41.0884 2.84776 41.2036 3.15368 41.2668 3.49007H40.3998ZM44.9138 8.36667C44.4126 8.36667 43.9802 8.25604 43.6167 8.03479C43.2555 7.81128 42.9767 7.49972 42.7803 7.10011C42.5861 6.69824 42.489 6.2309 42.489 5.69809C42.489 5.16527 42.5861 4.69567 42.7803 4.28929C42.9767 3.88065 43.2499 3.56232 43.5998 3.33429C43.952 3.10401 44.3629 2.98887 44.8325 2.98887C45.1034 2.98887 45.371 3.03402 45.6351 3.12433C45.8993 3.21463 46.1397 3.36138 46.3564 3.56458C46.5732 3.76551 46.7459 4.03192 46.8746 4.3638C47.0033 4.69567 47.0676 5.10432 47.0676 5.58972V5.92837H43.058V5.23752H46.2548C46.2548 4.94402 46.1961 4.68213 46.0787 4.45185C45.9636 4.22156 45.7988 4.03982 45.5843 3.90661C45.3721 3.77341 45.1215 3.70681 44.8325 3.70681C44.5142 3.70681 44.2387 3.78583 44.0062 3.94387C43.7759 4.09965 43.5987 4.30284 43.4745 4.55344C43.3503 4.80404 43.2882 5.07271 43.2882 5.35943V5.82C43.2882 6.21284 43.356 6.54585 43.4914 6.81903C43.6292 7.08995 43.8199 7.29653 44.0638 7.43876C44.3076 7.57874 44.5909 7.64873 44.9138 7.64873C45.1237 7.64873 45.3134 7.61938 45.4827 7.56068C45.6543 7.49972 45.8022 7.40941 45.9263 7.28975C46.0505 7.16784 46.1465 7.01657 46.2142 6.83596L46.9863 7.0527C46.9051 7.31459 46.7685 7.54487 46.5766 7.74355C46.3847 7.93997 46.1476 8.09349 45.8654 8.20412C45.5832 8.31249 45.266 8.36667 44.9138 8.36667ZM50.6409 3.0566V3.7339H47.9453V3.0566H50.6409ZM48.7309 1.81035H49.5302V6.76823C49.5302 6.994 49.5629 7.16332 49.6284 7.27621C49.6961 7.38683 49.7819 7.46134 49.8857 7.49972C49.9919 7.53584 50.1036 7.5539 50.221 7.5539C50.3091 7.5539 50.3813 7.54939 50.4377 7.54036C50.4942 7.52907 50.5393 7.52004 50.5732 7.51326L50.7358 8.23121C50.6816 8.25153 50.6059 8.27185 50.5089 8.29217C50.4118 8.31474 50.2887 8.32603 50.1397 8.32603C49.914 8.32603 49.6927 8.27749 49.476 8.18041C49.2615 8.08333 49.0831 7.93545 48.9409 7.73678C48.8009 7.5381 48.7309 7.2875 48.7309 6.98497V1.81035ZM54.716 8.2583V3.0566H55.5152V8.2583H54.716ZM55.1224 2.18965C54.9666 2.18965 54.8323 2.13659 54.7194 2.03048C54.6088 1.92437 54.5535 1.79681 54.5535 1.6478C54.5535 1.49879 54.6088 1.37124 54.7194 1.26512C54.8323 1.15901 54.9666 1.10596 55.1224 1.10596C55.2782 1.10596 55.4114 1.15901 55.522 1.26512C55.6349 1.37124 55.6913 1.49879 55.6913 1.6478C55.6913 1.79681 55.6349 1.92437 55.522 2.03048C55.4114 2.13659 55.2782 2.18965 55.1224 2.18965ZM59.3366 3.0566V3.7339H56.6409V3.0566H59.3366ZM57.4266 1.81035H58.2258V6.76823C58.2258 6.994 58.2586 7.16332 58.324 7.27621C58.3918 7.38683 58.4776 7.46134 58.5814 7.49972C58.6875 7.53584 58.7993 7.5539 58.9167 7.5539C59.0047 7.5539 59.077 7.54939 59.1334 7.54036C59.1899 7.52907 59.235 7.52004 59.2689 7.51326L59.4314 8.23121C59.3773 8.25153 59.3016 8.27185 59.2045 8.29217C59.1075 8.31474 58.9844 8.32603 58.8354 8.32603C58.6096 8.32603 58.3884 8.27749 58.1717 8.18041C57.9572 8.08333 57.7788 7.93545 57.6366 7.73678C57.4966 7.5381 57.4266 7.2875 57.4266 6.98497V1.81035ZM65.5249 8.36667C65.0553 8.36667 64.6433 8.25491 64.2888 8.0314C63.9366 7.80789 63.6612 7.4952 63.4625 7.09334C63.2661 6.69147 63.1679 6.22187 63.1679 5.68454C63.1679 5.1427 63.2661 4.66971 63.4625 4.26559C63.6612 3.86146 63.9366 3.54764 64.2888 3.32413C64.6433 3.10062 65.0553 2.98887 65.5249 2.98887C65.9945 2.98887 66.4054 3.10062 66.7576 3.32413C67.112 3.54764 67.3875 3.86146 67.5839 4.26559C67.7826 4.66971 67.8819 5.1427 67.8819 5.68454C67.8819 6.22187 67.7826 6.69147 67.5839 7.09334C67.3875 7.4952 67.112 7.80789 66.7576 8.0314C66.4054 8.25491 65.9945 8.36667 65.5249 8.36667ZM65.5249 7.64873C65.8816 7.64873 66.1751 7.55729 66.4054 7.37442C66.6357 7.19154 66.8061 6.9511 66.9168 6.65309C67.0274 6.35507 67.0827 6.03222 67.0827 5.68454C67.0827 5.33686 67.0274 5.01288 66.9168 4.71261C66.8061 4.41234 66.6357 4.16963 66.4054 3.9845C66.1751 3.79937 65.8816 3.70681 65.5249 3.70681C65.1682 3.70681 64.8747 3.79937 64.6444 3.9845C64.4141 4.16963 64.2437 4.41234 64.133 4.71261C64.0224 5.01288 63.9671 5.33686 63.9671 5.68454C63.9671 6.03222 64.0224 6.35507 64.133 6.65309C64.2437 6.9511 64.4141 7.19154 64.6444 7.37442C64.8747 7.55729 65.1682 7.64873 65.5249 7.64873ZM69.9965 5.12915V8.2583H69.1973V3.0566H69.9694V3.86936H70.0371C70.159 3.60521 70.3442 3.39299 70.5925 3.2327C70.8409 3.07014 71.1615 2.98887 71.5543 2.98887C71.9065 2.98887 72.2147 3.06111 72.4788 3.2056C72.743 3.34784 72.9484 3.56458 73.0952 3.85582C73.2419 4.1448 73.3153 4.51055 73.3153 4.95305V8.2583H72.5161V5.00724C72.5161 4.59859 72.41 4.28026 72.1977 4.05223C71.9855 3.82195 71.6943 3.70681 71.324 3.70681C71.0689 3.70681 70.8409 3.76212 70.6399 3.87275C70.4413 3.98338 70.2843 4.1448 70.1692 4.35702C70.0541 4.56924 69.9965 4.82662 69.9965 5.12915Z" fill="white"/>
<path d="M43.8805 18.1402C43.7846 17.8293 43.6521 17.5511 43.4833 17.3054C43.3182 17.0559 43.1187 16.8429 42.8845 16.6664C42.6543 16.4898 42.3894 16.3574 42.0901 16.2691C41.7907 16.177 41.4645 16.131 41.1114 16.131C40.4781 16.131 39.9139 16.2903 39.4188 16.6088C38.9237 16.9274 38.5341 17.3956 38.2501 18.0135C37.9699 18.6276 37.8298 19.3761 37.8298 20.2588C37.8298 21.1492 37.9699 21.9034 38.2501 22.5213C38.5303 23.1393 38.9198 23.6094 39.4188 23.9318C39.9177 24.2504 40.4973 24.4097 41.1574 24.4097C41.7561 24.4097 42.2743 24.2945 42.7118 24.0642C43.1532 23.834 43.4929 23.5077 43.7308 23.0855C43.9688 22.6595 44.0878 22.1606 44.0878 21.5887L44.5714 21.6635H41.3704V19.994H46.1546V21.4102C46.1546 22.4196 45.9396 23.2928 45.5098 24.0297C45.0799 24.7666 44.4888 25.3346 43.7366 25.7338C42.9843 26.1291 42.1208 26.3268 41.1459 26.3268C40.0597 26.3268 39.106 26.0831 38.2846 25.5956C37.4671 25.1044 36.8281 24.4078 36.3675 23.5058C35.9108 22.6 35.6824 21.5254 35.6824 20.2818C35.6824 19.33 35.8167 18.4799 36.0854 17.7314C36.3579 16.983 36.7379 16.3478 37.2253 15.8258C37.7127 15.3 38.2846 14.9009 38.9409 14.6284C39.5972 14.352 40.3111 14.2139 41.0826 14.2139C41.735 14.2139 42.3434 14.3098 42.9076 14.5017C43.4718 14.6898 43.9726 14.9584 44.4102 15.3077C44.8515 15.657 45.2142 16.0715 45.4983 16.5512C45.7823 17.031 45.9684 17.5607 46.0567 18.1402H43.8805ZM51.9851 26.3383C51.1215 26.3383 50.3731 26.1483 49.7398 25.7683C49.1065 25.3884 48.6152 24.8568 48.266 24.1736C47.9206 23.4905 47.7478 22.6921 47.7478 21.7787C47.7478 20.8652 47.9206 20.065 48.266 19.378C48.6152 18.691 49.1065 18.1575 49.7398 17.7775C50.3731 17.3975 51.1215 17.2076 51.9851 17.2076C52.8486 17.2076 53.597 17.3975 54.2303 17.7775C54.8636 18.1575 55.353 18.691 55.6984 19.378C56.0476 20.065 56.2223 20.8652 56.2223 21.7787C56.2223 22.6921 56.0476 23.4905 55.6984 24.1736C55.353 24.8568 54.8636 25.3884 54.2303 25.7683C53.597 26.1483 52.8486 26.3383 51.9851 26.3383ZM51.9966 24.6687C52.4648 24.6687 52.8563 24.5402 53.171 24.283C53.4857 24.022 53.7199 23.6728 53.8734 23.2352C54.0307 22.7977 54.1094 22.3103 54.1094 21.7729C54.1094 21.2318 54.0307 20.7424 53.8734 20.3049C53.7199 19.8635 53.4857 19.5123 53.171 19.2513C52.8563 18.9903 52.4648 18.8598 51.9966 18.8598C51.5168 18.8598 51.1177 18.9903 50.7991 19.2513C50.4844 19.5123 50.2483 19.8635 50.091 20.3049C49.9375 20.7424 49.8607 21.2318 49.8607 21.7729C49.8607 22.3103 49.9375 22.7977 50.091 23.2352C50.2483 23.6728 50.4844 24.022 50.7991 24.283C51.1177 24.5402 51.5168 24.6687 51.9966 24.6687ZM61.8484 26.3383C60.9848 26.3383 60.2364 26.1483 59.6031 25.7683C58.9699 25.3884 58.4786 24.8568 58.1293 24.1736C57.7839 23.4905 57.6112 22.6921 57.6112 21.7787C57.6112 20.8652 57.7839 20.065 58.1293 19.378C58.4786 18.691 58.9699 18.1575 59.6031 17.7775C60.2364 17.3975 60.9848 17.2076 61.8484 17.2076C62.712 17.2076 63.4604 17.3975 64.0937 17.7775C64.7269 18.1575 65.2163 18.691 65.5617 19.378C65.911 20.065 66.0856 20.8652 66.0856 21.7787C66.0856 22.6921 65.911 23.4905 65.5617 24.1736C65.2163 24.8568 64.7269 25.3884 64.0937 25.7683C63.4604 26.1483 62.712 26.3383 61.8484 26.3383ZM61.8599 24.6687C62.3282 24.6687 62.7196 24.5402 63.0344 24.283C63.3491 24.022 63.5832 23.6728 63.7367 23.2352C63.8941 22.7977 63.9728 22.3103 63.9728 21.7729C63.9728 21.2318 63.8941 20.7424 63.7367 20.3049C63.5832 19.8635 63.3491 19.5123 63.0344 19.2513C62.7196 18.9903 62.3282 18.8598 61.8599 18.8598C61.3802 18.8598 60.981 18.9903 60.6624 19.2513C60.3477 19.5123 60.1117 19.8635 59.9543 20.3049C59.8008 20.7424 59.724 21.2318 59.724 21.7729C59.724 22.3103 59.8008 22.7977 59.9543 23.2352C60.1117 23.6728 60.3477 24.022 60.6624 24.283C60.981 24.5402 61.3802 24.6687 61.8599 24.6687ZM71.7002 29.6659C70.9518 29.6659 70.3089 29.5642 69.7716 29.3608C69.2343 29.1612 68.8025 28.8925 68.4763 28.5548C68.15 28.217 67.9236 27.8428 67.7969 27.4321L69.6737 26.9773C69.7582 27.1501 69.881 27.3208 70.0422 27.4897C70.2034 27.6624 70.4202 27.8044 70.6927 27.9157C70.9691 28.0309 71.3164 28.0885 71.7348 28.0885C72.3258 28.0885 72.8152 27.9445 73.2028 27.6567C73.5905 27.3727 73.7843 26.9044 73.7843 26.2519V24.5766H73.6807C73.5732 24.7916 73.4158 25.0123 73.2086 25.2387C73.0052 25.4651 72.7346 25.6551 72.3968 25.8086C72.0629 25.9622 71.6427 26.0389 71.136 26.0389C70.4567 26.0389 69.8407 25.8797 69.288 25.5611C68.7392 25.2387 68.3016 24.7589 67.9754 24.1218C67.653 23.4809 67.4918 22.6787 67.4918 21.7154C67.4918 20.7443 67.653 19.9249 67.9754 19.2571C68.3016 18.5854 68.7411 18.0769 69.2938 17.7314C69.8464 17.3822 70.4625 17.2076 71.1418 17.2076C71.6599 17.2076 72.086 17.2958 72.4199 17.4724C72.7576 17.6451 73.0263 17.8543 73.2259 18.0999C73.4254 18.3417 73.577 18.5701 73.6807 18.785H73.7958V17.3227H75.8511V26.3095C75.8511 27.0656 75.6707 27.6912 75.3099 28.1863C74.9491 28.6814 74.456 29.0518 73.8304 29.2974C73.2047 29.5431 72.4947 29.6659 71.7002 29.6659ZM71.7175 24.4039C72.1589 24.4039 72.535 24.2965 72.8459 24.0815C73.1568 23.8666 73.3928 23.5576 73.554 23.1546C73.7152 22.7516 73.7958 22.268 73.7958 21.7038C73.7958 21.1473 73.7152 20.6599 73.554 20.2415C73.3967 19.8232 73.1625 19.4989 72.8516 19.2686C72.5446 19.0345 72.1666 18.9174 71.7175 18.9174C71.2531 18.9174 70.8654 19.0383 70.5546 19.2801C70.2437 19.5219 70.0096 19.8539 69.8522 20.2761C69.6948 20.6944 69.6162 21.1704 69.6162 21.7038C69.6162 22.245 69.6948 22.719 69.8522 23.1258C70.0134 23.5288 70.2494 23.8436 70.5603 24.07C70.875 24.2926 71.2608 24.4039 71.7175 24.4039ZM80.071 14.3751V26.1656H77.987V14.3751H80.071ZM86.1289 26.3383C85.2423 26.3383 84.4767 26.1541 83.8319 25.7856C83.1909 25.4133 82.6977 24.8875 82.3523 24.2082C82.0069 23.525 81.8342 22.7209 81.8342 21.796C81.8342 20.8863 82.0069 20.088 82.3523 19.401C82.7016 18.7102 83.189 18.1728 83.8146 17.789C84.4402 17.4014 85.1752 17.2076 86.0196 17.2076C86.5646 17.2076 87.0789 17.2958 87.5625 17.4724C88.0499 17.6451 88.4798 17.9138 88.852 18.2784C89.2282 18.643 89.5237 19.1074 89.7386 19.6716C89.9536 20.2319 90.061 20.8998 90.061 21.6751V22.3141H82.8129V20.9094H88.0633C88.0595 20.5102 87.9731 20.1552 87.8043 19.8443C87.6354 19.5296 87.3993 19.282 87.0961 19.1016C86.7968 18.9212 86.4475 18.8311 86.0483 18.8311C85.6223 18.8311 85.2481 18.9347 84.9257 19.1419C84.6033 19.3454 84.3519 19.614 84.1715 19.9479C83.995 20.278 83.9048 20.6407 83.9009 21.036V22.2623C83.9009 22.7766 83.995 23.218 84.183 23.5864C84.3711 23.951 84.634 24.2312 84.9718 24.4269C85.3095 24.6188 85.7048 24.7148 86.1577 24.7148C86.4609 24.7148 86.7354 24.6726 86.981 24.5881C87.2266 24.4999 87.4396 24.3713 87.62 24.2024C87.8004 24.0335 87.9367 23.8244 88.0288 23.5749L89.9747 23.7937C89.8519 24.308 89.6177 24.757 89.2723 25.1408C88.9307 25.5208 88.4932 25.8163 87.9597 26.0274C87.4262 26.2347 86.816 26.3383 86.1289 26.3383ZM95.9376 26.1656V14.3751H100.359C101.265 14.3751 102.025 14.5439 102.639 14.8817C103.257 15.2194 103.723 15.6838 104.038 16.2749C104.356 16.8621 104.516 17.5299 104.516 18.2784C104.516 19.0345 104.356 19.7061 104.038 20.2934C103.719 20.8806 103.249 21.3431 102.627 21.6808C102.006 22.0147 101.24 22.1817 100.33 22.1817H97.3999V20.4258H100.042C100.572 20.4258 101.006 20.3337 101.344 20.1494C101.681 19.9652 101.931 19.7119 102.092 19.3895C102.257 19.0671 102.339 18.6967 102.339 18.2784C102.339 17.86 102.257 17.4916 102.092 17.173C101.931 16.8544 101.679 16.6069 101.338 16.4303C101 16.25 100.564 16.1598 100.031 16.1598H98.0735V26.1656H95.9376ZM108.363 14.3751V26.1656H106.279V14.3751H108.363ZM113.051 26.3441C112.49 26.3441 111.985 26.2443 111.536 26.0447C111.091 25.8413 110.738 25.5419 110.477 25.1466C110.22 24.7513 110.091 24.2638 110.091 23.6843C110.091 23.1853 110.184 22.7727 110.368 22.4465C110.552 22.1203 110.803 21.8593 111.122 21.6635C111.44 21.4678 111.799 21.32 112.199 21.2202C112.601 21.1166 113.018 21.0418 113.448 20.9957C113.966 20.942 114.386 20.894 114.709 20.8518C115.031 20.8057 115.265 20.7366 115.411 20.6445C115.561 20.5486 115.635 20.4008 115.635 20.2012V20.1667C115.635 19.733 115.507 19.3972 115.25 19.1592C114.993 18.9212 114.622 18.8023 114.139 18.8023C113.628 18.8023 113.223 18.9136 112.924 19.1362C112.628 19.3588 112.429 19.6217 112.325 19.9249L110.379 19.6486C110.533 19.1112 110.786 18.6622 111.139 18.3014C111.492 17.9368 111.924 17.6643 112.435 17.4839C112.945 17.2997 113.509 17.2076 114.127 17.2076C114.553 17.2076 114.977 17.2574 115.399 17.3572C115.822 17.457 116.207 17.6221 116.557 17.8523C116.906 18.0788 117.186 18.3878 117.397 18.7792C117.612 19.1707 117.72 19.6601 117.72 20.2473V26.1656H115.716V24.9508H115.647C115.52 25.1965 115.342 25.4268 115.112 25.6417C114.885 25.8528 114.599 26.0236 114.254 26.1541C113.912 26.2807 113.511 26.3441 113.051 26.3441ZM113.592 24.8127C114.01 24.8127 114.373 24.7302 114.68 24.5651C114.987 24.3962 115.223 24.1736 115.388 23.8973C115.557 23.621 115.641 23.3197 115.641 22.9934V21.9514C115.576 22.0051 115.465 22.055 115.307 22.1011C115.154 22.1471 114.981 22.1874 114.789 22.222C114.597 22.2565 114.407 22.2872 114.219 22.3141C114.031 22.341 113.868 22.364 113.73 22.3832C113.419 22.4254 113.141 22.4945 112.895 22.5904C112.649 22.6864 112.456 22.8207 112.314 22.9934C112.172 23.1623 112.101 23.3811 112.101 23.6497C112.101 24.0335 112.241 24.3233 112.521 24.5191C112.801 24.7148 113.158 24.8127 113.592 24.8127ZM120.794 29.4817C120.51 29.4817 120.247 29.4586 120.005 29.4126C119.767 29.3704 119.577 29.3205 119.435 29.2629L119.919 27.6394C120.222 27.7277 120.493 27.7699 120.731 27.7661C120.968 27.7622 121.178 27.6874 121.358 27.5415C121.542 27.3995 121.698 27.1616 121.824 26.8277L122.003 26.3498L118.796 17.3227H121.007L123.045 24.0009H123.137L125.181 17.3227H127.397L123.857 27.2364C123.692 27.7047 123.473 28.1057 123.2 28.4396C122.928 28.7774 122.594 29.0345 122.199 29.2111C121.807 29.3915 121.339 29.4817 120.794 29.4817Z" fill="white"/>
<defs>
<clipPath id="clip0_425_3161">
<rect width="26.7021" height="26.7021" fill="white" transform="translate(0.487305 0.258301)"/>
</clipPath>
</defs>
</svg>
