<svg width="92" height="20" viewBox="0 0 92 20" fill="none" xmlns="http://www.w3.org/2000/svg">
<path d="M22.0798 3.70192C20.3814 3.70192 18.7557 5.72115 18.7557 10.7933C18.7557 11.1298 18.78 11.4423 18.8042 11.7067C21.449 11.226 24.0452 8.26923 24.0452 5.9375C24.0452 4.54327 23.4386 3.70192 22.0798 3.70192ZM21.8372 20C18.5616 20 15.0191 17.5 15.0191 10.7692C15.0191 5.72115 17.0087 0 22.0798 0C26.2289 0 27.7817 2.35577 27.7817 5.9375C27.7817 10.601 23.8996 13.9904 19.799 15.1923C20.2358 15.8894 21.0122 16.2981 21.8372 16.2981C24.5547 16.2981 26.9083 13.9904 28.3155 12.0192C30.2324 9.32692 31.6639 5.69711 32.9256 0.384615H36.5894L35.9828 7.11538H36.4924C37.8511 2.76442 39.8407 0 43.1163 0C46.1978 0 47.7749 1.99519 47.7749 5.52885V19.6154H44.0626V5.84135C44.0626 4.375 43.7229 3.70192 42.6553 3.70192C41.3208 3.70192 40.1804 5.88942 38.8702 9.66346C38.0695 11.9952 37.2688 15.0481 36.6379 19.6154H32.9741L33.4352 11.0096H32.9499C31.2514 14.5433 27.2237 20 21.8372 20ZM7.2548 20C3.49395 20 0.0485271 17.6923 0 13.3654H3.68806C4.02775 15.2885 5.41077 16.2981 7.2548 16.2981C9.12309 16.2981 10.0936 15.3846 10.0936 14.351C10.0936 13.3894 9.75394 12.524 6.93937 11.8029C3.13 10.8173 0.630852 8.91827 0.630852 5.57692C0.630852 1.97115 3.78511 0 7.01216 0C11.137 0 13.806 2.28365 13.8545 6.25H10.1664C9.92379 4.51923 8.54076 3.70192 7.01216 3.70192C5.48356 3.70192 4.36744 4.42308 4.36744 5.67308C4.36744 6.92308 5.43503 7.64423 8.10402 8.34135C12.059 9.375 13.8302 11.0817 13.8302 14.2548C13.8302 17.8606 11.1612 20 7.2548 20ZM56.5098 20C52.7489 20 49.3035 17.6923 49.255 13.3654H52.943C53.2827 15.2885 54.6657 16.2981 56.5098 16.2981C58.3781 16.2981 59.3486 15.3846 59.3486 14.351C59.3486 13.3894 59.0089 12.524 56.1944 11.8029C52.385 10.8173 49.8858 8.91827 49.8858 5.57692C49.8858 1.97115 53.0401 0 56.2671 0C60.3919 0 63.0609 2.28365 63.1095 6.25H59.4214C59.1788 4.51923 57.7957 3.70192 56.2671 3.70192C54.7385 3.70192 53.6224 4.42308 53.6224 5.67308C53.6224 6.92308 54.69 7.64423 57.359 8.34135C61.314 9.375 63.0852 11.0817 63.0852 14.2548C63.0852 17.8606 60.4162 20 56.5098 20ZM71.3348 3.70192C69.6364 3.70192 68.0107 5.72115 68.0107 10.7933C68.0107 11.1298 68.035 11.4423 68.0592 11.7067C70.7039 11.226 73.3001 8.26923 73.3001 5.9375C73.3001 4.54327 72.6936 3.70192 71.3348 3.70192ZM64.2741 10.7692C64.2741 5.72115 66.2637 0 71.3348 0C75.4839 0 77.0367 2.35577 77.0367 5.9375C77.0367 10.601 73.1546 13.9904 69.054 15.1923C69.4908 15.8894 70.2672 16.2981 71.0922 16.2981C73.2031 16.2981 75.4596 14.7596 76.9154 12.524H81.3071C81.6225 14.5673 83.321 16.2981 85.165 16.2981C87.0333 16.2981 88.0038 15.3846 88.0038 14.351C88.0038 13.3894 87.6642 12.524 84.8496 11.8029C81.0402 10.8173 78.5411 8.91827 78.5411 5.57692C78.5411 1.97115 81.6953 0 84.9224 0C89.0472 0 91.7162 2.28365 91.7647 6.25H88.0766C87.834 4.51923 86.451 3.70192 84.9224 3.70192C83.3938 3.70192 82.2776 4.42308 82.2776 5.67308C82.2776 6.92308 83.3452 7.64423 86.0142 8.34135C89.9692 9.375 91.7404 11.0817 91.7404 14.2548C91.7404 17.8606 89.0714 20 85.165 20C82.4475 20 80.1425 18.5096 78.905 16.2019H78.5896C76.8911 18.5577 73.7612 20 71.0922 20C67.8166 20 64.2741 17.5 64.2741 10.7692Z" fill="#E4D7CD"/>
</svg>
